<svg width="40" height="40" viewBox="0 0 40 40" fill="none" xmlns="http://www.w3.org/2000/svg">
<rect width="40" height="40" rx="20" fill="#F0F1F3"/>
<g clip-path="url(#clip0_144_15833)">
<path d="M25.2131 28.2507H25.1884C24.8051 28.2447 24.4406 28.0819 24.1804 27.8007L22.7419 26.3899C22.4539 26.0922 22.4606 25.6174 22.7584 25.3294C22.7591 25.3287 22.7599 25.3279 22.7606 25.3272C23.0584 25.0414 23.5309 25.0497 23.8181 25.3452L25.2139 26.7124L27.7196 24.2067C28.0121 23.9142 28.4876 23.9142 28.7801 24.2067C29.0726 24.4992 29.0726 24.9747 28.7801 25.2672L26.2144 27.8329C25.9504 28.1007 25.5896 28.2514 25.2131 28.2507Z" fill="#667085"/>
<path d="M21.5262 26.0114C21.5232 23.5386 23.525 21.5316 25.997 21.5279C26.9592 21.5264 27.8967 21.8354 28.6692 22.4091C29.999 17.6204 27.1947 12.6606 22.4067 11.3309C17.6187 10.0011 12.6597 12.8046 11.33 17.5934C10.0002 22.3821 12.8045 27.3426 17.5925 28.6724C19.1675 29.1096 20.8317 29.1096 22.4067 28.6724C21.8352 27.9029 21.5262 26.9699 21.5262 26.0114ZM20.75 20.0166C20.75 20.2161 20.6705 20.4066 20.5295 20.5476L18.2757 22.8021C17.9772 23.0901 17.5017 23.0819 17.2137 22.7834C16.9325 22.4924 16.9325 22.0304 17.2137 21.7394L19.2477 19.7054V16.2599C19.2477 15.8451 19.5837 15.5084 19.9992 15.5084C20.414 15.5084 20.75 15.8451 20.75 16.2599V20.0166Z" fill="#667085"/>
</g>
<defs>
<clipPath id="clip0_144_15833">
<rect width="18" height="18" fill="white" transform="translate(11 11)"/>
</clipPath>
</defs>
</svg>
