<svg width="40" height="40" viewBox="0 0 40 40" fill="none" xmlns="http://www.w3.org/2000/svg">
<rect width="40" height="40" rx="20" fill="#F0F1F3"/>
<g clip-path="url(#clip0_144_15809)">
<path d="M28.9655 15.1562L22.652 21.4698C21.948 22.1719 20.9943 22.5663 20 22.5663C19.0057 22.5663 18.052 22.1719 17.348 21.4698L11.0345 15.1562C11.024 15.2748 11 15.382 11 15.4998V24.4998C11.0012 25.4939 11.3967 26.4471 12.0997 27.1501C12.8027 27.8531 13.7558 28.2486 14.75 28.2498H25.25C26.2442 28.2486 27.1973 27.8531 27.9003 27.1501C28.6033 26.4471 28.9988 25.4939 29 24.4998V15.4998C29 15.382 28.976 15.2748 28.9655 15.1562Z" fill="#667085"/>
<path d="M21.5915 20.4095L28.442 13.5582C28.1101 13.008 27.6421 12.5525 27.083 12.2358C26.5239 11.9191 25.8926 11.7518 25.25 11.75H14.75C14.1074 11.7518 13.4761 11.9191 12.917 12.2358C12.3579 12.5525 11.8898 13.008 11.558 13.5582L18.4085 20.4095C18.8312 20.8305 19.4034 21.0669 20 21.0669C20.5965 21.0669 21.1688 20.8305 21.5915 20.4095Z" fill="#667085"/>
</g>
<defs>
<clipPath id="clip0_144_15809">
<rect width="18" height="18" fill="white" transform="translate(11 11)"/>
</clipPath>
</defs>
</svg>
