<svg width="40" height="40" viewBox="0 0 40 40" fill="none" xmlns="http://www.w3.org/2000/svg">
<rect width="40" height="40" rx="20" fill="#F0F1F3"/>
<g clip-path="url(#clip0_144_15815)">
<path d="M20 11.0317C18.0155 11.0339 16.1128 11.8232 14.7095 13.2264C13.3061 14.6296 12.5167 16.5322 12.5143 18.5167C12.5143 20.4442 14.0068 23.4607 16.9505 27.4822C17.301 27.9623 17.7598 28.3529 18.2897 28.6222C18.8196 28.8914 19.4056 29.0318 20 29.0318C20.5944 29.0318 21.1804 28.8914 21.7103 28.6222C22.2402 28.3529 22.6991 27.9623 23.0495 27.4822C25.9933 23.4607 27.4858 20.4442 27.4858 18.5167C27.4834 16.5322 26.6939 14.6296 25.2906 13.2264C23.8872 11.8232 21.9846 11.0339 20 11.0317ZM20 21.5002C19.4067 21.5002 18.8267 21.3243 18.3333 20.9946C17.84 20.665 17.4555 20.1965 17.2284 19.6483C17.0013 19.1001 16.9419 18.4969 17.0577 17.915C17.1734 17.333 17.4592 16.7985 17.8787 16.3789C18.2983 15.9594 18.8328 15.6736 19.4148 15.5579C19.9967 15.4421 20.5999 15.5015 21.1481 15.7286C21.6963 15.9557 22.1648 16.3402 22.4944 16.8335C22.8241 17.3269 23 17.9069 23 18.5002C23 19.2959 22.684 20.0589 22.1214 20.6216C21.5587 21.1842 20.7957 21.5002 20 21.5002Z" fill="#667085"/>
</g>
<defs>
<clipPath id="clip0_144_15815">
<rect width="18" height="18" fill="white" transform="translate(11 11)"/>
</clipPath>
</defs>
</svg>
