<svg width="20" height="20" viewBox="0 0 20 20" fill="none" xmlns="http://www.w3.org/2000/svg">
<path d="M2.53245 2.937L2.70726 3.66634C2.8034 3.6433 2.88883 3.64674 2.9792 3.6765L5.13369 4.56801L5.52185 4.72863L5.86158 4.48155C6.02412 4.36334 6.19465 4.25208 6.37336 4.14783C6.54651 4.04683 6.7167 3.96198 6.88392 3.89231L7.28384 3.72567L7.33929 3.29598L7.63888 0.974123C7.63893 0.973721 7.63898 0.97332 7.63904 0.97292C7.64955 0.895579 7.67534 0.850066 7.72496 0.804955C7.76887 0.765039 7.80517 0.75 7.87045 0.75H11.6205C11.6857 0.75 11.722 0.765039 11.766 0.804955C11.8156 0.850057 11.8413 0.895562 11.8519 0.97288C11.8519 0.973294 11.852 0.973709 11.852 0.974124L12.1516 3.29598L12.2088 3.73948L12.6262 3.90001C12.8024 3.96779 12.9663 4.04821 13.1188 4.14084C13.2923 4.24668 13.4625 4.36022 13.6293 4.48155L13.9691 4.72863L14.3572 4.56801L16.5115 3.67658C16.5945 3.64942 16.6641 3.64963 16.7394 3.67114C16.7815 3.68318 16.8138 3.70103 16.852 3.7606L18.6949 6.97319L18.7006 6.98322L18.7067 6.99307C18.7405 7.04798 18.7479 7.08827 18.735 7.15292C18.7204 7.22592 18.6946 7.26311 18.6455 7.3L18.6454 7.29999L18.6416 7.30288L16.7666 8.72788L16.4156 8.99463L16.478 9.43106C16.4901 9.51574 16.4955 9.59253 16.4955 9.662V10.337C16.4955 10.3684 16.4907 10.4116 16.4743 10.469L16.3335 10.9619L16.7416 11.2721L18.6166 12.6971L18.6166 12.6971L18.6205 12.7C18.6696 12.7369 18.6954 12.7741 18.71 12.8471C18.7229 12.9117 18.7155 12.952 18.6817 13.0069L18.6763 13.0157L18.6712 13.0246L16.8276 16.2135C16.79 16.2723 16.7503 16.3015 16.6861 16.3217C16.6019 16.3475 16.5343 16.3464 16.4633 16.324L14.363 15.4344L13.9724 15.269L13.6293 15.5184C13.4668 15.6367 13.2963 15.7479 13.1176 15.8522C12.9444 15.9532 12.7742 16.038 12.607 16.1077L12.2071 16.2743L12.1516 16.704L11.852 19.0259C11.852 19.0263 11.8519 19.0267 11.8519 19.0271C11.8414 19.1044 11.8156 19.1499 11.766 19.195C11.722 19.235 11.6857 19.25 11.6205 19.25H7.87045C7.80517 19.25 7.76887 19.235 7.72496 19.195C7.67533 19.1499 7.64955 19.1044 7.63903 19.0271C7.63898 19.0267 7.63893 19.0263 7.63888 19.0259L7.33929 16.704L7.28206 16.2605L6.86469 16.1C6.68863 16.0323 6.52536 15.952 6.37391 15.8597L6.37292 15.8591C6.19877 15.7532 6.02833 15.6397 5.86158 15.5184L5.52185 15.2714L5.13369 15.432L2.9794 16.3234C2.89639 16.3506 2.82678 16.3504 2.7515 16.3289C2.70937 16.3168 2.67716 16.299 2.63891 16.2394L0.796015 13.0268L0.79026 13.0168L0.784198 13.0069C0.750409 12.952 0.742962 12.9117 0.75589 12.8471C0.770491 12.7741 0.796269 12.7369 0.845454 12.7L0.845463 12.7L0.849267 12.6971L2.72427 11.2721L3.07526 11.0054L3.01292 10.5689C3.00085 10.4845 2.99545 10.4073 2.99545 10.337V9.662C2.99545 9.59253 3.00082 9.51574 3.01292 9.43107L3.07526 8.99464L2.72427 8.72788L0.849267 7.30288L0.849276 7.30287L0.845455 7.3C0.796268 7.26311 0.770491 7.22592 0.75589 7.15291C0.742962 7.08827 0.750409 7.04798 0.784198 6.99307L0.79026 6.98322L0.796015 6.97319L2.64602 3.74819L2.65669 3.72959L2.66627 3.71041C2.67914 3.68468 2.68841 3.67443 2.69097 3.67194C2.69109 3.67188 2.69126 3.67179 2.69148 3.67169C2.69282 3.67103 2.69824 3.66854 2.70962 3.66578L2.53245 2.937ZM2.53245 2.937C2.29112 2.99567 2.11212 3.14167 1.99545 3.375L3.24545 2.975C3.01212 2.89167 2.77445 2.879 2.53245 2.937ZM6.77401 6.9978L6.77375 6.99806C5.95946 7.82281 5.54545 8.83755 5.54545 10C5.54545 11.1624 5.95946 12.1772 6.77375 13.0019L6.77401 13.0022C7.59392 13.8318 8.61697 14.25 9.79545 14.25C10.961 14.25 11.9768 13.8294 12.8008 13.0053C13.6248 12.1813 14.0455 11.1655 14.0455 10C14.0455 8.83449 13.6248 7.8187 12.8008 6.99467C11.9768 6.17064 10.961 5.75 9.79545 5.75C8.61697 5.75 7.59392 6.16818 6.77401 6.9978Z" stroke="white" stroke-width="1.5"/>
</svg>
