<svg width="20" height="24" viewBox="0 0 20 24" fill="none" xmlns="http://www.w3.org/2000/svg">
<path d="M11.0231 21.9273C10.6116 22.3532 10.2615 22.7028 10 22.9593C9.7385 22.7028 9.38836 22.3532 8.97687 21.9273C8.05015 20.9681 6.81643 19.6263 5.58473 18.0928C4.35097 16.5568 3.13178 14.844 2.22426 13.1424C1.30982 11.4278 0.75 9.79457 0.75 8.4C0.75 4.28741 4.75781 0.75 10 0.75C15.2422 0.75 19.25 4.28741 19.25 8.4C19.25 9.79457 18.6902 11.4278 17.7757 13.1424C16.8682 14.844 15.649 16.5568 14.4153 18.0928C13.1836 19.6263 11.9499 20.9681 11.0231 21.9273ZM5.67857 8.4C5.67857 10.5874 7.74219 12.15 10 12.15C12.2578 12.15 14.3214 10.5874 14.3214 8.4C14.3214 6.21259 12.2578 4.65 10 4.65C7.74219 4.65 5.67857 6.21259 5.67857 8.4Z" stroke="white" stroke-width="1.5"/>
</svg>
