<?xml version="1.0" standalone="no"?>
<!DOCTYPE svg PUBLIC "-//W3C//DTD SVG 20010904//EN"
 "http://www.w3.org/TR/2001/REC-SVG-20010904/DTD/svg10.dtd">
<svg version="1.0" xmlns="http://www.w3.org/2000/svg"
 width="48.000000pt" height="48.000000pt" viewBox="0 0 48.000000 48.000000"
 preserveAspectRatio="xMidYMid meet">

<g transform="translate(0.000000,48.000000) scale(0.100000,-0.100000)"
fill="#000000" stroke="none">
<path d="M136 374 c-13 -12 -16 -40 -16 -144 0 -71 4 -131 9 -134 4 -3 17 1
27 9 16 12 21 11 36 -2 14 -13 20 -13 33 -3 12 10 18 10 30 0 13 -10 19 -10
33 3 15 13 20 14 36 2 10 -8 23 -12 27 -9 5 3 9 63 9 134 0 161 1 160 -120
160 -67 0 -92 -4 -104 -16z m194 -125 c0 -74 -3 -108 -10 -104 -6 4 -18 1 -26
-6 -12 -10 -20 -10 -35 -1 -15 9 -23 9 -38 0 -15 -9 -23 -9 -35 1 -8 7 -20 10
-26 6 -7 -4 -10 30 -10 104 l0 111 90 0 90 0 0 -111z"/>
<path d="M185 290 c-3 -5 0 -13 8 -16 23 -8 102 0 102 11 0 14 -102 19 -110 5z"/>
<path d="M187 234 c-12 -12 4 -24 34 -24 19 0 29 5 29 15 0 15 -50 22 -63 9z"/>
</g>
</svg>
