<svg xmlns="http://www.w3.org/2000/svg" width="101" height="101" fill="none" viewBox="0 0 101 101"><path fill="#323232" d="M0 0h101v101H0z"/><g id="EMPTY CART"><path fill="#fff" d="M-180.5-248a2 2 0 0 1 2-2h474a2 2 0 0 1 2 2V983a2 2 0 0 1-2 2h-474a2 2 0 0 1-2-2V-248Z"/><path fill="#fff" fill-opacity=".1" d="M-178.5-249h474v-2h-474v2Zm475 1V983h2V-248h-2Zm-1 1232h-474v2h474v-2Zm-475-1V-248h-2V983h2Zm1 1a1 1 0 0 1-1-1h-2a3 3 0 0 0 3 3v-2Zm475-1a1 1 0 0 1-1 1v2a3 3 0 0 0 3-3h-2Zm-1-1232a1 1 0 0 1 1 1h2a3 3 0 0 0-3-3v2Zm-474-2a3 3 0 0 0-3 3h2a1 1 0 0 1 1-1v-2Z"/><g id="SS Unserviceable" clip-path="url(#clip0_2398_85094)"><path fill="#F0F4F9" d="M-129.5-213h360v806h-360z"/><g id="Frame 1116609621"><g id="Frame 1686555694"><rect width="336" height="328" x="-117.5" y="-53" fill="#fff" rx="12"/><g id="Frame 1686555692"><g id="Frame 1686555695"><g id="Frame 1814105603"><rect width="100" height="100" x=".5" y=".5" fill="url(#paint0_linear_2398_85094)" rx="17.241"/><g id="Group 1686556130"><path id="Rectangle 34625482" fill="#C2C9D5" d="M23.785 39.575a6.705 6.705 0 0 1 6.696-6.37h30.103a6.705 6.705 0 0 1 6.697 6.37l1.45 29.138c.254 5.105-3.817 9.384-8.928 9.384h-28.54c-5.112 0-9.183-4.279-8.929-9.384l1.45-29.137Z"/><path id="Ellipse 3486" stroke="#C2C9D5" stroke-width="5.206" d="M33.348 30.899c0-5.613 4.948-10.477 11.454-10.477 6.507 0 11.455 4.864 11.455 10.477v14.693h-22.91V30.899Z"/></g><circle id="Ellipse 3517" cx="62.687" cy="63.759" r="16.977" fill="#EDF2F8" stroke="#C2C9D5" stroke-width="4"/><g id="Group 1686556131" stroke="#C2C9D5" stroke-linecap="round" stroke-width="4.261"><path id="Line 86" d="M62.688 56.95v13.617"/><path id="Line 87" d="M55.879 63.759h13.617"/></g></g></g></g></g></g></g></g><defs><linearGradient id="paint0_linear_2398_85094" x1="50.5" x2="50.5" y1=".5" y2="100.5" gradientUnits="userSpaceOnUse"><stop stop-color="#F0F4F9"/><stop offset="1" stop-color="#EAEFF6"/></linearGradient><clipPath id="clip0_2398_85094"><path fill="#fff" d="M-129.5-213h360v806h-360z"/></clipPath></defs></svg>