<svg xmlns="http://www.w3.org/2000/svg" width="18" height="19" fill="none" viewBox="0 0 18 19"><path fill="#3C006B" d="m9.05 14.401-.35-.663.35.663Zm-.8 0-.35.664.35-.664Zm5.6-7.451c0 1.83-.917 3.34-2.061 4.512-1.144 1.171-2.455 1.942-3.088 2.276l.699 1.327c.701-.37 2.165-1.226 3.462-2.555 1.298-1.33 2.488-3.194 2.488-5.56h-1.5Zm-5.2-5.2a5.2 5.2 0 0 1 5.2 5.2h1.5c0-3.7-3-6.7-6.7-6.7v1.5Zm-5.2 5.2a5.2 5.2 0 0 1 5.2-5.2V.25c-3.7 0-6.7 3-6.7 6.7h1.5Zm5.15 6.788c-.634-.334-1.945-1.105-3.089-2.276-1.143-1.172-2.06-2.681-2.06-4.512h-1.5c0 2.366 1.19 4.23 2.487 5.56 1.298 1.329 2.761 2.185 3.463 2.555l.699-1.327Zm.1 0a.104.104 0 0 1-.1 0l-.7 1.327c.471.248 1.029.248 1.5 0l-.7-1.327Zm1.75-6.788a1.8 1.8 0 0 1-1.8 1.8v1.5a3.3 3.3 0 0 0 3.3-3.3h-1.5Zm-1.8-1.8a1.8 1.8 0 0 1 1.8 1.8h1.5a3.3 3.3 0 0 0-3.3-3.3v1.5Zm-1.8 1.8a1.8 1.8 0 0 1 1.8-1.8v-1.5a3.3 3.3 0 0 0-3.3 3.3h1.5Zm1.8 1.8a1.8 1.8 0 0 1-1.8-1.8h-1.5a3.3 3.3 0 0 0 3.3 3.3v-1.5Z"/><path stroke="#3C006B" stroke-linecap="round" stroke-width="1.5" d="M15.275 14.175c.671.388 1.025.827 1.025 1.275 0 .448-.354.887-1.025 1.275-.671.388-1.637.71-2.8.933A20.6 20.6 0 0 1 8.65 18a20.6 20.6 0 0 1-3.825-.342c-1.163-.224-2.129-.545-2.8-.933C1.353 16.337 1 15.898 1 15.45c0-.448.353-.887 1.025-1.275"/></svg>