<?xml version="1.0" standalone="no"?>
<!DOCTYPE svg PUBLIC "-//W3C//DTD SVG 20010904//EN"
 "http://www.w3.org/TR/2001/REC-SVG-20010904/DTD/svg10.dtd">
<svg version="1.0" xmlns="http://www.w3.org/2000/svg"
 width="48.000000pt" height="49.000000pt" viewBox="0 0 48.000000 49.000000"
 preserveAspectRatio="xMidYMid meet">

<g transform="translate(0.000000,49.000000) scale(0.100000,-0.100000)"
fill="#000000" stroke="none">
<path d="M114 347 c-2 -7 -3 -56 -2 -108 l3 -94 38 -3 c32 -3 37 -7 37 -28 0
-32 29 -32 60 1 17 18 35 25 74 27 l51 3 0 105 0 105 -128 3 c-100 2 -129 0
-133 -11z m244 -94 l3 -83 -47 0 c-35 0 -54 -6 -71 -22 l-23 -21 0 21 c0 19
-5 22 -45 22 l-45 0 0 78 c0 43 3 82 7 86 4 3 54 5 112 4 l106 -3 3 -82z"/>
<path d="M180 250 c0 -5 5 -10 10 -10 6 0 10 5 10 10 0 6 -4 10 -10 10 -5 0
-10 -4 -10 -10z"/>
<path d="M230 250 c0 -5 7 -10 15 -10 8 0 15 5 15 10 0 6 -7 10 -15 10 -8 0
-15 -4 -15 -10z"/>
<path d="M290 250 c0 -5 5 -10 10 -10 6 0 10 5 10 10 0 6 -4 10 -10 10 -5 0
-10 -4 -10 -10z"/>
</g>
</svg>
