<?xml version="1.0" encoding="UTF-8"?>
<svg version="1.1" xmlns="http://www.w3.org/2000/svg" width="16" height="16">
<path d="M0 0 C1.32 0 2.64 0 4 0 C4 0.99 4 1.98 4 3 C4.99 3.33 5.98 3.66 7 4 C7.33 6.97 7.66 9.94 8 13 C4.56889804 13.85777549 2.38420123 13.96691464 -1 13 C-1.33 13.33 -1.66 13.66 -2 14 C-3.66617115 14.04063832 -5.33388095 14.042721 -7 14 C-7.63394697 9.95858806 -8.12404452 6.0934693 -8 2 C-5.36 2 -2.72 2 0 2 C0 1.34 0 0.68 0 0 Z M2 6 C3 9 3 9 3 9 Z " fill="#E86052" transform="translate(8,1)"/>
<path d="M0 0 C1.32 0 2.64 0 4 0 C4 0.99 4 1.98 4 3 C4.99 3.33 5.98 3.66 7 4 C7 5.65 7 7.3 7 9 C5.68 9 4.36 9 3 9 C3 8.01 3 7.02 3 6 C-2.57830016 5.87530901 -2.57830016 5.87530901 -8 7 C-8 5.35 -8 3.7 -8 2 C-5.36 2 -2.72 2 0 2 C0 1.34 0 0.68 0 0 Z " fill="#F3AE5E" transform="translate(8,1)"/>
<path d="M0 0 C1.65 0.33 3.3 0.66 5 1 C4.67 2.32 4.34 3.64 4 5 C2.35 5 0.7 5 -1 5 C-0.67 3.35 -0.34 1.7 0 0 Z " fill="#9F484E" transform="translate(2,10)"/>
<path d="M0 0 C1.65 0 3.3 0 5 0 C4.67 1.65 4.34 3.3 4 5 C2.35 4.67 0.7 4.34 -1 4 C-0.34 3.67 0.32 3.34 1 3 C1.66 3.33 2.32 3.66 3 4 C3 3.34 3 2.68 3 2 C2.01 2 1.02 2 0 2 C0 1.34 0 0.68 0 0 Z " fill="#9A4344" transform="translate(11,10)"/>
<path d="M0 0 C0.78375 0.04125 1.5675 0.0825 2.375 0.125 C2.705 1.775 3.035 3.425 3.375 5.125 C2.715 5.125 2.055 5.125 1.375 5.125 C1.375 4.135 1.375 3.145 1.375 2.125 C-0.605 2.125 -2.585 2.125 -4.625 2.125 C-2.625 0.125 -2.625 0.125 0 0 Z " fill="#4F4D4D" transform="translate(6.625,5.875)"/>
<path d="M0 0 C1.32 0 2.64 0 4 0 C4 1.65 4 3.3 4 5 C2.68 5 1.36 5 0 5 C0 3.35 0 1.7 0 0 Z " fill="#EA6750" transform="translate(11,5)"/>
<path d="M0 0 C0.99 0 1.98 0 3 0 C3 0.66 3 1.32 3 2 C3.99 2.33 4.98 2.66 6 3 C4.02 3.66 2.04 4.32 0 5 C0 3.35 0 1.7 0 0 Z " fill="#F6C562" transform="translate(0,3)"/>
</svg>
