<svg fill="none" height="24" viewBox="0 0 24 24" width="24" xmlns="http://www.w3.org/2000/svg"><g opacity="0.6"><path d="M10 15L10 12" stroke="#130022" stroke-linecap="round" stroke-width="1.55"></path><path d="M14 15L14 12" stroke="#130022" stroke-linecap="round" stroke-width="1.55"></path><path d="M19.2346 7.15224L19.5312 7.86825L19.2346 7.15224ZM18.1522 8.23463L17.4362 7.93805L18.1522 8.23463ZM5.84776 8.23463L5.13175 8.53121L5.84776 8.23463ZM6.58579 19.4142L7.13379 18.8662L6.58579 19.4142ZM17.4142 19.4142L16.8662 18.8662L17.4142 19.4142ZM3 7.775H21V6.225H3V7.775ZM14 19.225H10V20.775H14V19.225ZM6.775 16V10H5.225V16H6.775ZM17.225 10V16H18.775V10H17.225ZM21 6.225C20.5447 6.225 20.1643 6.22458 19.8529 6.24583C19.5346 6.26755 19.232 6.31448 18.9381 6.43623L19.5312 7.86825C19.6048 7.83776 19.719 7.80857 19.9584 7.79223C20.2049 7.77542 20.5235 7.775 21 7.775V6.225ZM18.775 10C18.775 9.52345 18.7754 9.20486 18.7922 8.95844C18.8086 8.71899 18.8378 8.60481 18.8682 8.53121L17.4362 7.93805C17.3145 8.232 17.2676 8.53456 17.2458 8.85293C17.2246 9.16435 17.225 9.54466 17.225 10H18.775ZM18.9381 6.43623C18.2581 6.71788 17.7179 7.2581 17.4362 7.93805L18.8682 8.53121C18.9926 8.23105 19.2311 7.99258 19.5312 7.86825L18.9381 6.43623ZM6.775 10C6.775 9.54466 6.77542 9.16435 6.75417 8.85293C6.73245 8.53456 6.68552 8.232 6.56377 7.93805L5.13175 8.53121C5.16224 8.60481 5.19143 8.71899 5.20777 8.95844C5.22458 9.20486 5.225 9.52345 5.225 10H6.775ZM3 7.775C3.47655 7.775 3.79514 7.77542 4.04156 7.79223C4.28101 7.80857 4.39519 7.83776 4.46879 7.86825L5.06195 6.43623C4.768 6.31448 4.46544 6.26755 4.14707 6.24583C3.83565 6.22458 3.45534 6.225 3 6.225V7.775ZM6.56377 7.93805C6.28212 7.2581 5.7419 6.71788 5.06195 6.43623L4.46879 7.86825C4.76895 7.99258 5.00742 8.23105 5.13175 8.53121L6.56377 7.93805ZM10 19.225C9.03528 19.225 8.38971 19.2234 7.90872 19.1587C7.45003 19.097 7.25869 18.9911 7.13379 18.8662L6.03778 19.9622C6.49867 20.4231 7.07162 20.6101 7.70219 20.6949C8.31046 20.7766 9.0791 20.775 10 20.775V19.225ZM5.225 16C5.225 16.9209 5.22335 17.6895 5.30513 18.2978C5.38991 18.9284 5.57689 19.5013 6.03778 19.9622L7.13379 18.8662C7.0089 18.7413 6.90298 18.55 6.84131 18.0913C6.77665 17.6103 6.775 16.9647 6.775 16H5.225ZM14 20.775C14.9209 20.775 15.6895 20.7766 16.2978 20.6949C16.9284 20.6101 17.5013 20.4231 17.9622 19.9622L16.8662 18.8662C16.7413 18.9911 16.55 19.097 16.0913 19.1587C15.6103 19.2234 14.9647 19.225 14 19.225V20.775ZM17.225 16C17.225 16.9647 17.2234 17.6103 17.1587 18.0913C17.097 18.55 16.9911 18.7413 16.8662 18.8662L17.9622 19.9622C18.4231 19.5013 18.6101 18.9284 18.6949 18.2978C18.7766 17.6895 18.775 16.9209 18.775 16H17.225Z" fill="#130022"></path><path d="M10.0681 3.37059C10.1821 3.26427 10.4332 3.17033 10.7825 3.10332C11.1318 3.03632 11.5597 3 12 3C12.4403 3 12.8682 3.03632 13.2175 3.10332C13.5668 3.17033 13.8179 3.26427 13.9319 3.37059" stroke="#130022" stroke-linecap="round" stroke-width="1.55"></path></g></svg>